<svg clip-rule="evenodd" fill-rule="evenodd" stroke-linejoin="round" stroke-miterlimit="2" viewBox="0 0 560 400" xmlns="http://www.w3.org/2000/svg" fill="#ffffff" style="background:transparent"><path fill="#ffffff" d="m12.15 0c6.707.008 12.142 5.443 12.15 12.15 0 6.71-5.44 12.15-12.15 12.15s-12.15-5.44-12.15-12.15 5.44-12.15 12.15-12.15zm-7.842 18.894c1.759 2.05 4.252 3.329 6.942 3.564v-12.242zm8.742 3.564c2.692-.235 5.183-1.515 6.942-3.565l-6.942-8.677zm9.45-10.308c.001-1.229-.218-2.448-.647-3.6h-7.83l7.057 8.822c.931-1.582 1.422-3.386 1.42-5.222zm-20.053-3.6c-1.081 2.908-.797 6.147.773 8.823l7.057-8.823zm9.703-6.75c-3.603.002-6.946 1.877-8.826 4.95h17.652c-1.881-3.073-5.223-4.948-8.826-4.95zm42.84 6.66c2.112 0 3.826 1.713 3.826 3.825v8.415h-2.7v-7.74c0-1.491-1.21-2.7-2.7-2.7h-1.666c.697-1.12 1.922-1.8 3.24-1.8zm-6.39-6.12h2.7v18.36h-2.7zm-14.4 2.16.746-1.8h12.754l-.746 1.8h-4.654v16.2h-2.7v-16.2zm86.372 12.06c0 1.491 1.209 2.7 2.7 2.7h2.014c-.991 1.483-2.835 2.143-4.541 1.625-1.707-.518-2.873-2.091-2.873-3.875v-2.7c0-1.716 1.082-3.245 2.7-3.816zm5.164-7.869v-6.351h2.7v18.36h-2.7v-7.74c0-1.491-1.208-2.7-2.7-2.7h-2.014c1.028-1.539 2.969-2.186 4.714-1.569zm-53.006.129h2.7v11.88h-2.7zm23.113 7.74c0 1.491 1.208 2.7 2.7 2.7h2.014c-.99 1.483-2.835 2.143-4.542 1.625-1.706-.517-2.873-2.091-2.872-3.875v-14.67h2.7zm3.814-8.1c2.237 0 4.05 1.813 4.05 4.05v2.7c0 1.716-1.082 3.245-2.7 3.816v-6.066c0-1.491-1.209-2.7-2.7-2.7h-2.014c.75-1.125 2.012-1.8 3.364-1.8zm-13.714 0c2.485 0 4.5 2.015 4.5 4.5v7.74h-2.7v-5.4h-4.184c-.445.836-.419 1.845.07 2.655.488.812 1.367 1.307 2.314 1.305h1.314c-.874 1.513-2.708 2.181-4.35 1.583-1.642-.599-2.617-2.29-2.313-4.01.305-1.721 1.801-2.975 3.548-2.973h3.6v-.9c0-.716-.284-1.403-.79-1.91-.507-.506-1.193-.79-1.909-.79h-2.7c.849-1.134 2.183-1.801 3.6-1.8zm26.079 0c2.237 0 4.05 1.813 4.05 4.05v2.7c0 1.716-1.082 3.245-2.7 3.816v-6.066c0-1.491-1.209-2.7-2.7-2.7h-2.015c.75-1.125 2.013-1.8 3.365-1.8zm-3.815 8.1c0 1.491 1.21 2.7 2.7 2.7h2.015c-.991 1.483-2.835 2.143-4.542 1.625s-2.873-2.091-2.873-3.875v-2.7c0-1.716 1.083-3.245 2.7-3.816zm-40.876-8.1c1.988 0 3.6 1.612 3.6 3.6v2.61h-7.152l.001.54c0 2.237 1.813 4.05 4.05 4.05h2.004c-1.329 1.611-3.526 2.215-5.492 1.509s-3.276-2.57-3.276-4.659v-2.25c.001-1.64 1.112-3.071 2.7-3.48l.008 2.85h4.456v-.72c0-1.243-1.007-2.25-2.25-2.25h-1.764c.642-1.113 1.829-1.8 3.115-1.8zm13.759 2.813-2.7 1.8v-1.238c0-.87-.705-1.575-1.575-1.575h-1.16c.488-1.264 1.807-2.001 3.138-1.752 1.332.248 2.297 1.41 2.297 2.765zm58.258-2.453h1.948l-7.605 18.36h-1.948l2.87-6.93-4.735-11.43h2.923l3.273 7.903z" transform="matrix(3.31126 0 0 3.31126 46.0662 155)"/></svg>